PathFileType	4	(X/Y/Z)	D:\telocate\uwb02-Unnamed.trc
DataRate	CameraRate	NumFrames	NumMarkers	Units	OrigDataRate	OrigDataStartFrame	OrigNumFrames
100.00	100.00	      106	0	mm	100.00	1137	      4547
Frame#	Time	
		

1137	11.360	-1625.40759	1841.99536	1185.64795	
1138	11.370	-1624.78113	1838.13794	1186.31409	
1139	11.380	-1623.43860	1833.11804	1186.52698	
1140	11.390	-1623.57117	1828.65515	1186.76721	
1141	11.400	-1623.00635	1825.02271	1187.63428	
1142	11.410	-1622.58838	1819.73193	1187.25916	
1143	11.420	-1622.36926	1816.15784	1187.89343	
1144	11.430	-1622.27588	1811.29358	1187.41943	
1145	11.440	-1622.02258	1806.63171	1188.03613	
1146	11.450	-1621.90808	1801.98572	1188.39844	
1147	11.460	-1620.95874	1798.86011	1187.83459	
1148	11.470	-1620.63281	1793.79260	1188.00208	
1149	11.480	-1620.42029	1790.40308	1189.06152	
1150	11.490	-1620.77197	1784.69336	1189.21826	
1151	11.500	-1620.02112	1779.29260	1188.91882	
1152	11.510	-1619.60876	1777.15466	1188.79456	
1153	11.520	-1619.72925	1771.85535	1189.54858	
1154	11.530	-1619.47485	1767.95740	1190.39734	
1155	11.540	-1619.19275	1762.74231	1189.62573	
1156	11.550	-1617.30872	1759.23059	1190.03015	
1157	11.560	-1615.90674	1755.04358	1190.07776	
1158	11.570	-1615.39575	1751.24976	1189.83081	
1159	11.580	-1614.26123	1746.71448	1189.74609	
1160	11.590	-1612.20178	1742.69165	1189.26416	
1161	11.600	-1612.17041	1738.77881	1188.52283	
1162	11.610	-1611.41968	1735.09180	1188.74878	
1163	11.620	-1609.89661	1731.16284	1188.44971	
1164	11.630	-1609.05566	1726.56714	1189.01648	
1165	11.640	-1608.34741	1721.46814	1187.86230	
1166	11.650	-1607.33179	1717.58545	1187.64294	
1167	11.660	-1605.91370	1712.34534	1187.57190	
1168	11.670	-1604.36975	1707.99365	1188.06360	
1169	11.680	-1602.89966	1704.90698	1188.55603	
1170	11.690	-1600.52734	1699.24280	1188.04907	
1171	11.700	-1599.02136	1691.75098	1189.12988	
1172	11.710	-1598.89429	1683.73486	1188.88611	
1173	11.720	-1595.36108	1677.51904	1188.90735	
1174	11.730	-1594.18005	1672.85730	1188.89783	
1175	11.740	-1589.34058	1667.72803	1188.29248	
1176	11.750	-1587.96301	1661.70642	1188.64514	
1177	11.760	-1586.52039	1655.71045	1188.42139	
1178	11.770	-1583.97717	1650.26404	1187.87683	
1179	11.780	-1582.97449	1643.83521	1188.11292	
1180	11.790	-1581.19409	1639.62488	1188.65869	
1181	11.800	-1578.82324	1635.88501	1188.01099	
1182	11.810	-1577.86157	1628.96008	1188.38245	
1183	11.820	-1576.82031	1622.65039	1188.08252	
1184	11.830	-1576.35315	1616.66089	1188.75281	
1185	11.840	-1574.07068	1611.59802	1188.36780	
1186	11.850	-1572.81702	1605.44885	1188.11194	
1187	11.860	-1571.40820	1600.14758	1187.54126	
1188	11.870	-1570.84851	1594.58105	1186.75476	
1189	11.880	-1567.66528	1589.71277	1185.69470	
1190	11.890	-1566.64258	1584.80884	1185.63940	
1191	11.900	-1565.58350	1580.30334	1185.66370	
1192	11.910	-1564.48743	1577.07690	1185.71875	
1193	11.920	-1564.18237	1569.30664	1184.34949	
1194	11.930	-1563.74841	1564.44031	1184.89624	
1195	11.940	-1562.26929	1558.91858	1184.54846	
1196	11.950	-1562.18213	1553.47021	1183.96973	
1197	11.960	-1561.18677	1550.76672	1183.64099	
1198	11.970	-1559.79248	1544.24438	1182.50977	
1199	11.980	-1559.35840	1539.51599	1182.50989	
1200	11.990	-1558.12219	1535.21973	1181.51184	
1201	12.000	-1558.27039	1529.89795	1181.36133	
1202	12.010	-1557.27039	1525.89746	1181.14294	
1203	12.020	-1557.07971	1520.22998	1180.26624	
1204	12.030	-1553.81396	1515.01086	1179.68298	
1205	12.040	-1554.33789	1512.11279	1180.21069	
1206	12.050	-1553.56458	1504.83728	1179.26501	
1207	12.060	-1551.60925	1499.78247	1178.78174	
1208	12.070	-1551.46106	1494.86609	1178.72253	
1209	12.080	-1550.85168	1490.01807	1178.60254	
1210	12.090	-1550.39075	1485.70471	1178.45410	
1211	12.100	-1550.53198	1480.60657	1178.23645	
1212	12.110	-1549.50549	1476.75305	1178.21167	
1213	12.120	-1549.42444	1471.44336	1177.98206	
1214	12.130	-1548.29529	1467.66382	1178.03174	
1215	12.140	-1548.03296	1462.31580	1178.05298	
1216	12.150	-1547.24695	1457.08179	1177.81104	
1217	12.160	-1547.21204	1452.81702	1177.77625	
1218	12.170	-1546.38672	1447.88525	1177.10144	
1219	12.180	-1546.21228	1443.83801	1177.87756	
1220	12.190	-1545.82837	1438.83032	1178.04041	
1221	12.200	-1545.28601	1434.10828	1177.80579	
1222	12.210	-1544.71252	1430.20837	1178.23767	
1223	12.220	-1543.92993	1425.08423	1178.10706	
1224	12.230	-1543.69055	1420.08923	1177.58362	
1225	12.240	-1542.61255	1415.07776	1178.18359	
1226	12.250	-1542.21643	1409.88831	1178.12134	
1227	12.260	-1541.18176	1404.37280	1178.18262	
1228	12.270	-1539.12671	1399.09302	1178.56201	
1229	12.280	-1537.50732	1392.63904	1177.39319	
1230	12.290	-1537.21716	1386.89429	1177.61230	
1231	12.300	-1534.67273	1381.74597	1177.68860	
1232	12.310	-1534.00317	1375.47693	1177.86926	
1233	12.320	-1533.67749	1369.36877	1178.03979	
1234	12.330	-1532.78540	1364.75208	1178.01379	
1235	12.340	-1532.71375	1358.73193	1178.00281	
1236	12.350	-1532.14001	1352.17297	1178.04529	
1237	12.360	-1530.71692	1346.14221	1177.77539	
1238	12.370	-1529.83948	1340.27783	1177.68311	
1239	12.380	-1529.23633	1333.75830	1177.28455	
1240	12.390	-1528.46143	1327.12622	1177.38745	
1241	12.400	-1527.83936	1320.87354	1177.40198	
1242	12.410	-1527.35718	1313.74512	1177.04297	
